<?xml version="1.0" standalone="no"?>
<!DOCTYPE svg PUBLIC "-//W3C//DTD SVG 20010904//EN"
 "http://www.w3.org/TR/2001/REC-SVG-20010904/DTD/svg10.dtd">
<svg version="1.0" xmlns="http://www.w3.org/2000/svg"
 width="700.000000pt" height="700.000000pt" viewBox="0 0 700.000000 700.000000"
 preserveAspectRatio="xMidYMid meet">
<metadata>
Created by potrace 1.14, written by Peter Selinger 2001-2017
</metadata>
<g transform="translate(0.000000,700.000000) scale(0.100000,-0.100000)"
fill="#000000" stroke="none">
<path d="M2833 6502 l-43 -3 0 -904 0 -905 -335 -2 -335 -3 26 -30 c14 -16 38
-44 52 -60 15 -17 56 -64 92 -105 36 -41 77 -88 91 -105 163 -186 272 -311
414 -475 93 -107 172 -197 175 -200 3 -3 30 -34 60 -70 30 -36 57 -67 60 -70
3 -3 35 -39 70 -80 36 -41 77 -88 92 -104 15 -17 74 -85 130 -152 57 -68 108
-123 114 -123 10 -1 73 66 165 174 19 22 39 45 44 51 6 6 35 40 65 75 30 35
71 81 91 104 20 22 47 54 61 70 26 31 239 276 287 330 14 17 59 68 100 115 41
47 86 99 100 115 15 17 58 66 96 110 38 44 74 85 80 91 12 14 75 86 204 234
l91 105 -345 3 -345 2 0 905 0 905 -37 1 c-148 2 -1287 3 -1320 1z"/>
<path d="M2515 3699 c-187 -15 -324 -68 -480 -184 -64 -47 -179 -132 -805
-589 -113 -82 -295 -215 -405 -296 -110 -80 -216 -157 -235 -170 -19 -13 -37
-27 -40 -30 -3 -3 -61 -46 -129 -95 -67 -50 -159 -116 -204 -149 -44 -32 -89
-68 -99 -80 -28 -33 -23 -63 15 -83 30 -16 175 -17 2202 -17 1757 0 2183 3
2240 14 97 18 229 66 290 104 28 18 280 201 560 406 281 205 527 385 547 399
34 24 126 92 343 251 50 37 199 146 332 244 133 97 245 186 248 196 11 34 -4
58 -43 71 -29 10 -329 13 -1329 13 l-1293 0 -28 -30 c-15 -16 -54 -60 -87 -99
-33 -38 -64 -75 -70 -81 -66 -74 -138 -156 -161 -184 -16 -19 -36 -42 -44 -51
-8 -8 -38 -42 -66 -75 -28 -32 -87 -100 -130 -149 -43 -50 -94 -108 -112 -129
l-33 -38 -20 24 c-11 12 -30 34 -42 48 -12 14 -65 75 -117 135 -52 61 -97 112
-100 115 -3 3 -48 55 -100 115 -52 61 -97 112 -100 115 -3 3 -59 67 -124 143
-66 75 -126 137 -135 138 -69 4 -179 3 -246 -2z"/>
<path d="M6205 2911 c-27 -21 -203 -150 -390 -286 -187 -137 -419 -306 -515
-377 -96 -70 -179 -131 -185 -135 -144 -117 -297 -194 -463 -236 l-87 -21
-1887 -3 -1888 -4 -172 -125 c-95 -69 -180 -131 -188 -137 -8 -7 -80 -59 -159
-117 -186 -135 -205 -165 -131 -203 33 -16 156 -17 2225 -15 l2190 3 96 27
c135 37 193 69 391 212 262 191 1402 1023 1413 1033 6 5 84 62 175 127 91 66
189 139 218 163 61 52 68 82 25 110 -24 16 -58 18 -323 20 l-295 2 -50 -38z"/>
<path d="M6265 2191 c-10 -1 -84 -51 -164 -111 -80 -59 -299 -219 -486 -355
-187 -136 -412 -301 -500 -365 -209 -152 -264 -181 -434 -228 l-96 -27 -1900
-5 -1900 -5 -195 -143 c-107 -79 -202 -149 -211 -156 -8 -7 -57 -43 -109 -80
-116 -83 -143 -106 -163 -137 -16 -24 -16 -27 3 -47 12 -12 39 -24 67 -28 61
-9 4268 -9 4345 0 172 21 304 77 473 201 66 49 158 117 205 151 134 98 263
192 285 208 31 23 335 246 480 352 72 52 303 221 515 375 212 155 393 291 402
302 28 35 23 64 -14 83 -28 15 -71 17 -309 18 -151 1 -284 -1 -294 -3z"/>
</g>
</svg>
